<?xml version="1.0" encoding="UTF-8" standalone="no"?>
<!DOCTYPE svg PUBLIC "-//W3C//DTD SVG 1.1//EN"
 "http://www.w3.org/Graphics/SVG/1.1/DTD/svg11.dtd">
<!-- Generated by graphviz version 2.38.0 (20140413.2041)
 -->
<!-- Title: %3 Pages: 1 -->
<svg width="673pt" height="488pt"
 viewBox="0.00 0.00 673.32 488.00" xmlns="http://www.w3.org/2000/svg" xmlns:xlink="http://www.w3.org/1999/xlink">
<g id="graph0" class="graph" transform="scale(1 1) rotate(0) translate(4 484)">
<title>%3</title>
<polygon fill="white" stroke="none" points="-4,4 -4,-484 669.321,-484 669.321,4 -4,4"/>
<!-- NP -->
<g id="node1" class="node"><title>NP</title>
<ellipse fill="none" stroke="black" cx="99.8389" cy="-195.6" rx="99.678" ry="18"/>
<text text-anchor="middle" x="99.8389" y="-191.4" font-family="Times,serif" font-size="14.00">उत्तर की ओर (NP)</text>
</g>
<!-- VGNF -->
<g id="node2" class="node"><title>VGNF</title>
<ellipse fill="none" stroke="black" cx="101.839" cy="-284.4" rx="74.1759" ry="18"/>
<text text-anchor="middle" x="101.839" y="-280.2" font-family="Times,serif" font-size="14.00">जाती (VGNF)</text>
</g>
<!-- VGNF&#45;&gt;NP -->
<g id="edge1" class="edge"><title>VGNF&#45;&gt;NP</title>
<path fill="none" stroke="black" d="M101.444,-266.251C101.164,-254.125 100.784,-237.619 100.464,-223.719"/>
<polygon fill="black" stroke="black" points="103.963,-223.63 100.233,-213.713 96.9646,-223.791 103.963,-223.63"/>
<text text-anchor="middle" x="107.669" y="-235.8" font-family="Times,serif" font-size="14.00">rd</text>
</g>
<!-- NP2 -->
<g id="node3" class="node"><title>NP2</title>
<ellipse fill="none" stroke="black" cx="121.839" cy="-373.2" rx="61.3958" ry="18"/>
<text text-anchor="middle" x="121.839" y="-369" font-family="Times,serif" font-size="14.00">रेखा (NP)</text>
</g>
<!-- NP2&#45;&gt;VGNF -->
<g id="edge2" class="edge"><title>NP2&#45;&gt;VGNF</title>
<path fill="none" stroke="black" d="M117.888,-355.051C115.093,-342.925 111.29,-326.419 108.087,-312.519"/>
<polygon fill="black" stroke="black" points="111.438,-311.472 105.782,-302.513 104.617,-313.044 111.438,-311.472"/>
<text text-anchor="middle" x="152.729" y="-324.6" font-family="Times,serif" font-size="14.00">nmod__k1inv</text>
</g>
<!-- NP3 -->
<g id="node4" class="node"><title>NP3</title>
<ellipse fill="none" stroke="black" cx="339.839" cy="-195.6" rx="121.656" ry="18"/>
<text text-anchor="middle" x="339.839" y="-191.4" font-family="Times,serif" font-size="14.00">कराची जिले के (NP)</text>
</g>
<!-- JJP -->
<g id="node5" class="node"><title>JJP</title>
<ellipse fill="none" stroke="black" cx="446.839" cy="-18" rx="93.877" ry="18"/>
<text text-anchor="middle" x="446.839" y="-13.8" font-family="Times,serif" font-size="14.00">तत्कालीन (JJP)</text>
</g>
<!-- NP4 -->
<g id="node6" class="node"><title>NP4</title>
<ellipse fill="none" stroke="black" cx="446.839" cy="-106.8" rx="69.5" ry="18"/>
<text text-anchor="middle" x="446.839" y="-102.6" font-family="Times,serif" font-size="14.00">जत्ती (NP)</text>
</g>
<!-- NP4&#45;&gt;JJP -->
<g id="edge5" class="edge"><title>NP4&#45;&gt;JJP</title>
<path fill="none" stroke="black" d="M446.839,-88.6511C446.839,-76.5249 446.839,-60.019 446.839,-46.119"/>
<polygon fill="black" stroke="black" points="450.339,-46.1132 446.839,-36.1133 443.339,-46.1133 450.339,-46.1132"/>
<text text-anchor="middle" x="462.784" y="-58.2" font-family="Times,serif" font-size="14.00">nmod</text>
</g>
<!-- CCP -->
<g id="node7" class="node"><title>CCP</title>
<ellipse fill="none" stroke="black" cx="523.839" cy="-195.6" rx="44.6387" ry="18"/>
<text text-anchor="middle" x="523.839" y="-191.4" font-family="Times,serif" font-size="14.00">व (CCP)</text>
</g>
<!-- CCP&#45;&gt;NP4 -->
<g id="edge6" class="edge"><title>CCP&#45;&gt;NP4</title>
<path fill="none" stroke="black" d="M509.356,-178.274C497.887,-165.346 481.685,-147.081 468.649,-132.386"/>
<polygon fill="black" stroke="black" points="471.037,-129.803 461.782,-124.645 465.8,-134.449 471.037,-129.803"/>
<text text-anchor="middle" x="504.884" y="-147" font-family="Times,serif" font-size="14.00">ccof</text>
</g>
<!-- NP5 -->
<g id="node8" class="node"><title>NP5</title>
<ellipse fill="none" stroke="black" cx="599.839" cy="-106.8" rx="65.4647" ry="18"/>
<text text-anchor="middle" x="599.839" y="-102.6" font-family="Times,serif" font-size="14.00">बदिन (NP)</text>
</g>
<!-- CCP&#45;&gt;NP5 -->
<g id="edge8" class="edge"><title>CCP&#45;&gt;NP5</title>
<path fill="none" stroke="black" d="M538.134,-178.274C549.453,-165.346 565.445,-147.081 578.312,-132.386"/>
<polygon fill="black" stroke="black" points="581.135,-134.475 585.09,-124.645 575.869,-129.863 581.135,-134.475"/>
<text text-anchor="middle" x="579.884" y="-147" font-family="Times,serif" font-size="14.00">ccof</text>
</g>
<!-- NP6 -->
<g id="node9" class="node"><title>NP6</title>
<ellipse fill="none" stroke="black" cx="339.839" cy="-284.4" rx="106.562" ry="18"/>
<text text-anchor="middle" x="339.839" y="-280.2" font-family="Times,serif" font-size="14.00">तहसीलों की (NP)</text>
</g>
<!-- NP6&#45;&gt;NP3 -->
<g id="edge4" class="edge"><title>NP6&#45;&gt;NP3</title>
<path fill="none" stroke="black" d="M339.839,-266.251C339.839,-254.125 339.839,-237.619 339.839,-223.719"/>
<polygon fill="black" stroke="black" points="343.339,-223.713 339.839,-213.713 336.339,-223.713 343.339,-223.713"/>
<text text-anchor="middle" x="345.669" y="-235.8" font-family="Times,serif" font-size="14.00">r6</text>
</g>
<!-- NP6&#45;&gt;CCP -->
<g id="edge7" class="edge"><title>NP6&#45;&gt;CCP</title>
<path fill="none" stroke="black" d="M374.017,-267.277C405.988,-252.195 453.628,-229.721 486.565,-214.183"/>
<polygon fill="black" stroke="black" points="488.31,-217.231 495.86,-209.799 485.323,-210.9 488.31,-217.231"/>
<text text-anchor="middle" x="464.784" y="-235.8" font-family="Times,serif" font-size="14.00">nmod</text>
</g>
<!-- NP7 -->
<g id="node10" class="node"><title>NP7</title>
<ellipse fill="none" stroke="black" cx="329.839" cy="-373.2" rx="96.1883" ry="18"/>
<text text-anchor="middle" x="329.839" y="-369" font-family="Times,serif" font-size="14.00">सीमा रेखा (NP)</text>
</g>
<!-- NP7&#45;&gt;NP6 -->
<g id="edge9" class="edge"><title>NP7&#45;&gt;NP6</title>
<path fill="none" stroke="black" d="M331.815,-355.051C333.212,-342.925 335.113,-326.419 336.715,-312.519"/>
<polygon fill="black" stroke="black" points="340.2,-312.848 337.867,-302.513 333.246,-312.047 340.2,-312.848"/>
<text text-anchor="middle" x="341.669" y="-324.6" font-family="Times,serif" font-size="14.00">r6</text>
</g>
<!-- VGF -->
<g id="node11" class="node"><title>VGF</title>
<ellipse fill="none" stroke="black" cx="329.839" cy="-462" rx="94.3776" ry="18"/>
<text text-anchor="middle" x="329.839" y="-457.8" font-family="Times,serif" font-size="14.00">बताती है (VGF)</text>
</g>
<!-- VGF&#45;&gt;NP2 -->
<g id="edge3" class="edge"><title>VGF&#45;&gt;NP2</title>
<path fill="none" stroke="black" d="M292.172,-445.281C256.493,-430.392 202.937,-408.043 165.429,-392.391"/>
<polygon fill="black" stroke="black" points="166.359,-388.986 155.782,-388.365 163.663,-395.446 166.359,-388.986"/>
<text text-anchor="middle" x="251.839" y="-413.4" font-family="Times,serif" font-size="14.00">k1</text>
</g>
<!-- VGF&#45;&gt;NP7 -->
<g id="edge10" class="edge"><title>VGF&#45;&gt;NP7</title>
<path fill="none" stroke="black" d="M329.839,-443.851C329.839,-431.725 329.839,-415.219 329.839,-401.319"/>
<polygon fill="black" stroke="black" points="333.339,-401.313 329.839,-391.313 326.339,-401.313 333.339,-401.313"/>
<text text-anchor="middle" x="336.839" y="-413.4" font-family="Times,serif" font-size="14.00">k2</text>
</g>
<!-- BLK -->
<g id="node12" class="node"><title>BLK</title>
<ellipse fill="none" stroke="black" cx="485.839" cy="-373.2" rx="41.7114" ry="18"/>
<text text-anchor="middle" x="485.839" y="-369" font-family="Times,serif" font-size="14.00">. (BLK)</text>
</g>
<!-- VGF&#45;&gt;BLK -->
<g id="edge11" class="edge"><title>VGF&#45;&gt;BLK</title>
<path fill="none" stroke="black" d="M359.181,-444.674C385.666,-429.937 424.613,-408.267 452.317,-392.852"/>
<polygon fill="black" stroke="black" points="454.21,-395.804 461.247,-387.883 450.806,-389.687 454.21,-395.804"/>
<text text-anchor="middle" x="435.837" y="-413.4" font-family="Times,serif" font-size="14.00">rsym</text>
</g>
</g>
</svg>
